<svg width="170" height="63" viewBox="0 0 170 63" fill="none" xmlns="http://www.w3.org/2000/svg">
<path fill-rule="evenodd" clip-rule="evenodd" d="M0 51.3625C9.58864 51.3619 7.74341 49.1294 7.74341 62.5119L10.0457 62.5501L10.0532 51.3925L17.8314 51.3588L17.8168 49.0287L0.0196 49.0284L0 51.3626L0 51.3625Z" fill="#F6C90E"/>
<path fill-rule="evenodd" clip-rule="evenodd" d="M26.0083 51.3625C35.5969 51.3619 33.7517 49.1294 33.7517 62.5119L36.054 62.5501L36.0615 51.3925L43.8397 51.3588L43.8251 49.0287L26.0279 49.0284L26.0083 51.3626V51.3625Z" fill="#F6C90E"/>
<path fill-rule="evenodd" clip-rule="evenodd" d="M64.9044 62.5635L67.0897 62.5509L67.166 52.1111L82.523 62.4479C85.1703 63.2937 84.5807 61.1908 84.5719 59.2115C84.5571 55.8752 84.4943 52.2757 84.5396 49.0285L82.2684 49.0425L82.2194 59.3381C79.7906 58.0356 67.6155 49.2287 66.701 49.046C64.7839 48.1875 64.7487 50.2878 64.8267 52.2341C64.8316 55.1165 64.9653 59.8375 64.9043 62.5634L64.9044 62.5635Z" fill="#F6C90E"/>
<path fill-rule="evenodd" clip-rule="evenodd" d="M50.7808 60.177L48.0401 60.2136L53.8642 51.8302C54.391 52.4256 54.8137 53.1711 55.1884 53.73C54.1362 55.813 52.0021 58.0883 50.7808 60.177ZM44.863 62.1707C45.3681 62.6885 47.6438 62.5383 49.0682 62.546C51.8511 62.4744 52.2329 63.2454 54.7458 58.8426C55.5482 57.6613 56.3237 56.519 56.9147 55.8794C58.0765 57.9461 60.107 60.6161 61.2458 62.544L64.0483 62.5309C63.4881 61.323 62.5818 60.2029 61.8584 59.1247C58.7238 54.4504 56.9789 51.8977 54.8293 49.0277C54.5426 48.701 53.1303 48.7337 52.5578 49.4962L46.4373 58.3171C45.683 59.419 44.0655 61.0919 44.863 62.1707V62.1707Z" fill="#F6C90E"/>
<path fill-rule="evenodd" clip-rule="evenodd" d="M108.616 62.2619C108.932 62.9221 123.876 62.5447 126.678 62.5422L126.678 60.2106L110.452 60.2094V56.8736L126.614 56.8651L126.673 54.576L110.094 54.5256C108.648 54.5333 108.248 54.5265 108.122 55.963C107.973 57.6533 107.946 61.0305 108.616 62.2619H108.616Z" fill="#F6C90E"/>
<path fill-rule="evenodd" clip-rule="evenodd" d="M150.257 62.5107L152.59 62.5483C152.517 60.9981 152.072 57.5465 152.931 57.1526C154.176 56.5109 165.278 56.8692 167.668 56.873L167.669 62.5418H170L169.996 49.0299H167.7L167.665 54.5429L152.59 54.6036L152.583 49.0299L150.29 49.0445L150.257 62.5106L150.257 62.5107Z" fill="#F6C90E"/>
<path fill-rule="evenodd" clip-rule="evenodd" d="M136.023 62.5422L147.421 62.4698L147.419 60.2736C136.235 60.4283 131.522 62.036 131.227 55.7205C131.248 49.7915 138.874 51.1933 147.419 51.267L147.419 49.0615L136.522 49.0299C126.447 49.0299 126.405 62.5424 136.023 62.5421L136.023 62.5422Z" fill="#F6C90E"/>
<path fill-rule="evenodd" clip-rule="evenodd" d="M87.4507 51.3625C97.0393 51.3619 95.1941 49.1294 95.1941 62.5119L97.4963 62.5501L97.5039 51.3925L105.282 51.3588L105.267 49.0287L87.4703 49.0284L87.4507 51.3626V51.3625Z" fill="#F6C90E"/>
<path fill-rule="evenodd" clip-rule="evenodd" d="M112.451 51.331L126.584 51.3535L126.676 49.0299L112.448 49.0348L112.451 51.331Z" fill="#F6C90E"/>
<path fill-rule="evenodd" clip-rule="evenodd" d="M20.8257 62.5355L23.1562 62.5356L23.152 49.0358L20.8685 49.0361L20.8257 62.5355Z" fill="#F6C90E"/>
<path fill-rule="evenodd" clip-rule="evenodd" d="M94.7997 23.573H92.0498L86.4359 17.959L96.6748 7.72007C97.2334 8.06976 97.8938 8.27207 98.6013 8.27207C100.609 8.27207 102.237 6.64423 102.237 4.63599C102.237 2.62793 100.61 1 98.6013 1C96.5933 1 94.9654 2.62784 94.9654 4.63599C94.9654 5.39219 95.1962 6.0943 95.5912 6.67599L85.3889 16.8784L79.2851 10.7746H75.9136C75.5396 9.16434 74.0958 7.96459 72.3718 7.96459C70.3638 7.96459 68.7358 9.59243 68.7358 11.6006C68.7358 13.6087 70.3637 15.2367 72.3718 15.2367C74.096 15.2367 75.5396 14.0368 75.9136 12.4265H78.5363L91.3285 25.2187H94.7997C95.181 27.0999 96.844 28.5162 98.8377 28.5162C101.113 28.5162 102.958 26.6714 102.958 24.3959C102.958 22.1204 101.113 20.2757 98.8377 20.2757C96.844 20.2757 95.181 21.6918 94.7997 23.5731V23.573Z" fill="#F6C90E" stroke="#303841" stroke-width="0.755747" stroke-miterlimit="22.9256"/>
<path fill-rule="evenodd" clip-rule="evenodd" d="M75.2013 22.6991H77.9511L83.5651 28.3131L73.3262 38.552C72.7676 38.2023 72.1072 38 71.3996 38C69.3915 38 67.7636 39.6279 67.7636 41.6361C67.7636 43.6442 69.3914 45.2721 71.3996 45.2721C73.4077 45.2721 75.0356 43.6442 75.0356 41.6361C75.0356 40.8799 74.8048 40.1778 74.4097 39.5961L84.6121 29.3937L90.7159 35.4975H94.0874C94.4614 37.1077 95.9052 38.3075 97.6291 38.3075C99.6372 38.3075 101.265 36.6797 101.265 34.6715C101.265 32.6634 99.6373 31.0354 97.6291 31.0354C95.905 31.0354 94.4614 32.2353 94.0874 33.8456H91.4647L78.6725 21.0534H75.2013C74.8199 19.1721 73.1569 17.7559 71.1633 17.7559C68.8877 17.7559 67.043 19.6007 67.043 21.8762C67.043 24.1517 68.8878 25.9964 71.1633 25.9964C73.1569 25.9964 74.8199 24.5802 75.2013 22.699V22.6991Z" fill="#F6C90E" stroke="#303841" stroke-width="0.755747" stroke-miterlimit="22.9256"/>
</svg>
